<svg xmlns="http://www.w3.org/2000/svg" width="18" height="16" viewBox="0 0 18 16">
  <path fill="#53C1DE" d="M14.7753972,5.20073402 C16.713842,5.86643728 17.9664758,6.90924825 17.9664758,7.98747993 C17.9664758,9.11198832 16.6278177,10.2114566 14.5702258,10.8915025 C14.4614841,10.9274778 14.3500418,10.9620269 14.2364548,10.9954666 C14.2769649,11.158069 14.3131062,11.3177395 14.3440844,11.474082 C14.7502968,13.5209551 14.4374958,15.2033198 13.4747868,15.7592743 C12.5426589,16.2975581 11.0361622,15.7687832 9.51076087,14.4593265 C9.34495671,14.316649 9.18317147,14.1693885 9.02559365,14.0177166 C8.90048913,14.1384006 8.77554348,14.2535377 8.65107441,14.3620978 C7.07626672,15.7353436 5.45904264,16.305086 4.49545987,15.7507955 C3.56253763,15.2139381 3.26935619,13.6478991 3.64474916,11.6755917 C3.68576789,11.4612441 3.73278318,11.248082 3.78573997,11.0363549 C3.62272927,10.9899352 3.46090366,10.9394694 3.30041388,10.8850047 C1.3211413,10.2101887 0.0184657191,9.09717026 0.0184657191,7.98747993 C0.0184657191,6.91313106 1.23201923,5.8772933 3.13217809,5.21642373 C3.34457776,5.14257116 3.56658863,5.07315608 3.79646321,5.00802002 C3.74721836,4.81149302 3.70298725,4.61374943 3.66381271,4.41498071 C3.27007107,2.40780732 3.54712793,0.803732666 4.48251254,0.263547075 C5.45801003,-0.299776874 7.08262124,0.305148577 8.70341973,1.7408362 C8.80423776,1.8303348 8.9033852,1.92168888 9.00081104,2.01485142 C9.14629378,1.87474489 9.29530175,1.73832768 9.44769231,1.60573037 C10.9942224,0.263150871 12.5255017,-0.298509019 13.46176,0.240170994 C14.4382901,0.801830883 14.7242433,2.50804713 14.2868938,4.62599937 C14.2595659,4.7575755 14.2298005,4.88863605 14.1976129,5.01911375 C14.3917061,5.07480311 14.584362,5.13536241 14.7753972,5.20073402 Z M14.3290719,10.1654968 L14.3291513,10.1654968 C16.1056355,9.5782421 17.1998035,8.67964967 17.1998035,7.98747993 C17.1998035,7.3377041 16.1867349,6.49434261 14.5258236,5.92404546 C14.3540928,5.86501095 14.1758487,5.80914607 13.9922826,5.75605463 C13.7714632,6.46882703 13.4767726,7.22185382 13.1187751,7.99128349 C13.4938503,8.77933479 13.8004557,9.54218747 14.0276296,10.2595558 C14.130255,10.2292065 14.2309741,10.1979064 14.3290719,10.1654968 Z M13.5919482,11.6226587 C13.5639089,11.4813721 13.531342,11.3369159 13.4948035,11.1895277 C12.7514047,11.3609259 11.9316722,11.4865228 11.0639632,11.5633073 C10.570694,12.2756835 10.0652717,12.9172182 9.55953177,13.4690522 C9.71061037,13.6140632 9.86129181,13.75115 10.0108612,13.8795204 C11.3152843,14.9993536 12.5249457,15.4239266 13.0905769,15.0972954 C13.3563545,14.9438057 13.571296,14.5605964 13.6782107,13.9857825 C13.797199,13.3460703 13.7715426,12.5277489 13.5919482,11.6226587 Z M6.13730769,15.0408758 L6.13738712,15.0408758 C6.75234532,14.8241518 7.4501505,14.393398 8.14652592,13.7860953 C8.26307681,13.6842071 8.37709547,13.5794716 8.48847826,13.4719842 C7.96438963,12.9108789 7.44435201,12.2701366 6.94782609,11.5730539 C6.07805184,11.5026879 5.26427676,11.385966 4.5291388,11.2237598 C4.479951,11.4206682 4.43624691,11.6188996 4.39807692,11.8182254 C4.07709448,13.5048691 4.3123704,14.7624231 4.87855769,15.0881034 C5.14457358,15.2411177 5.58470318,15.2355708 6.13730769,15.0408758 Z M3.54839883,10.1612178 C3.69492968,10.2109507 3.84266382,10.2570829 3.99146739,10.2995725 C4.21816472,9.56223543 4.51698579,8.78813054 4.87712793,8.00610155 C4.52159281,7.23556251 4.22698161,6.47358148 4.0023495,5.74480242 C3.79458413,5.80340912 3.58858313,5.86807102 3.3846112,5.93870504 C1.75952341,6.50393077 0.78513796,7.33556459 0.78513796,7.98747993 C0.78513796,8.2939047 1.00992893,8.67148785 1.45506271,9.05184444 C1.95047659,9.47499114 2.67322324,9.86279637 3.54839883,10.1612178 Z M4.41626672,4.26806798 L4.41626672,4.26798874 C4.45273309,4.45288529 4.49386515,4.63683555 4.53962375,4.81966427 C5.28246656,4.65175268 6.09052258,4.52639349 6.93464047,4.44834115 C7.42687709,3.75529976 7.94214883,3.1193911 8.46353679,2.5608216 C8.37354097,2.47500365 8.28370401,2.39203837 8.19426421,2.31279741 C6.79484114,1.07323115 5.46714465,0.578767595 4.86664298,0.925526014 C4.30291806,1.25104786 4.0789214,2.54830153 4.41626672,4.26806798 Z M12.1582107,6.17516005 C12.3365119,6.48227223 12.5086477,6.79290588 12.6745151,7.1068752 C12.9015301,6.57675321 13.0943102,6.05962673 13.2489632,5.56508393 C12.7337709,5.44772808 12.185138,5.35184652 11.6124373,5.27973725 C11.8007861,5.57426711 11.9827528,5.87281064 12.1582107,6.17516005 Z M9.00104933,3.10742571 C8.64186037,3.49404233 8.28465719,3.92020019 7.93595318,4.37892608 C8.64266876,4.3459284 9.35054851,4.34608705 10.0572492,4.37940152 C9.70886288,3.91639662 9.35467809,3.48960484 9.00104933,3.10742571 Z M5.82363294,6.18038995 C5.99993712,5.87544201 6.18339487,5.5746661 6.37385452,5.27831092 C5.80488712,5.34923157 5.25879599,5.44265666 4.74670151,5.55700136 C4.90270485,6.0585966 5.09373746,6.57802106 5.31701923,7.10632051 C5.47864688,6.79378727 5.64756411,6.48505969 5.82363294,6.18038995 Z M6.39021739,10.751246 C6.1950901,10.4492529 6.00720784,10.1426618 5.82673077,9.83173392 C5.64986151,9.52692738 5.48020201,9.21801357 5.31789298,8.90524867 C5.08984532,9.44487957 4.89460284,9.97547701 4.73613712,10.4859472 C5.24807274,10.5971223 5.80242475,10.6857929 6.39021739,10.751246 Z M9.02225753,12.9215765 C9.37350334,12.5357523 9.72641722,12.1024627 10.0759156,11.6286018 C9.71998328,11.64445 9.35833194,11.6526118 8.99247074,11.6526118 C8.6363796,11.6526118 8.28600753,11.6457971 7.94238712,11.6323261 C8.29641304,12.0977083 8.6588587,12.5303639 9.02225753,12.9215765 Z M12.6818227,8.87775206 C12.5153948,9.19778967 12.3418471,9.51409224 12.1613085,9.82642477 C11.9837111,10.1337441 11.8000028,10.4375084 11.6102926,10.7375373 C12.2022952,10.6666959 12.7641137,10.5712898 13.2845485,10.4528245 C13.1239381,9.95099155 12.9217057,9.42324679 12.6818227,8.87775206 Z M11.4971028,9.44432489 L11.4971823,9.44432489 C11.7714143,8.97050572 12.0286439,8.48709364 12.2683821,7.99500782 C12.0261522,7.50788501 11.7681018,7.02875212 11.4946405,6.5583693 C11.2227153,6.08921588 10.9342791,5.62978148 10.6298704,5.18092378 C10.09625,5.14035241 9.54825251,5.11911584 8.99255017,5.11911584 C8.4393102,5.11911584 7.89202759,5.14019393 7.35824833,5.18044834 C7.05072908,5.62999781 6.76043624,6.09103702 6.48799749,6.56256908 L6.48799749,6.56241059 C6.21547324,7.03384225 5.96082136,7.51533373 5.72458194,8.00586383 C5.96142377,8.49624702 6.2168475,8.97748071 6.490301,9.44852466 C6.76503867,9.92208111 7.05763499,10.3851001 7.36746237,10.8365885 C7.89067726,10.8704244 8.43398829,10.8877781 8.99247074,10.8877781 C9.55325669,10.8877781 10.1035577,10.8682056 10.6360661,10.8302492 C10.9380609,10.3777071 11.2252249,9.91548813 11.4971028,9.44432489 Z M13.0788211,0.90278386 C12.5145401,0.578133667 11.2761246,1.03234282 9.95104933,2.18276301 C9.81036019,2.30522126 9.67274248,2.43114758 9.53832358,2.5604254 C10.0512918,3.11178396 10.5622742,3.748802 11.055464,4.44937129 C11.9020443,4.52861224 12.7106564,4.65619018 13.4552467,4.82758836 C13.484293,4.70943254 13.5111982,4.59076307 13.535949,4.47163799 C13.9135661,2.64299447 13.6797993,1.24859139 13.0788211,0.90278386 Z M8.99247074,6.38863518 C9.87765468,6.38863518 10.5951589,7.10449797 10.5951589,7.98747993 C10.5951589,8.87054113 9.87765468,9.58640392 8.99247074,9.58640392 C8.10736622,9.58640392 7.38978261,8.87054113 7.38978261,7.98747993 C7.38978261,7.10449797 8.10736622,6.38863518 8.99247074,6.38863518 Z"/>
</svg>
